<mxfile host="app.diagrams.net" agent="Mozilla/5.0 (Windows NT 10.0; Win64; x64) AppleWebKit/537.36 (KHTML, like Gecko) Chrome/127.0.0.0 Safari/537.36" version="24.7.6">
  <diagram id="R2lEEEUBdFMjLlhIrx00" name="Page-1">
    <mxGraphModel dx="1600" dy="723" grid="1" gridSize="10" guides="1" tooltips="1" connect="1" arrows="1" fold="1" page="1" pageScale="1" pageWidth="850" pageHeight="1100" math="0" shadow="0" extFonts="Permanent Marker^https://fonts.googleapis.com/css?family=Permanent+Marker">
      <root>
        <mxCell id="0" />
        <mxCell id="1" parent="0" />
        <mxCell id="awwlPpyYNJp0B0LDnPgi-2" value="&lt;font style=&quot;font-size: 14px;&quot;&gt;Alteration&lt;/font&gt;" style="rounded=0;whiteSpace=wrap;html=1;" vertex="1" parent="1">
          <mxGeometry x="50" y="180" width="130" height="60" as="geometry" />
        </mxCell>
        <mxCell id="awwlPpyYNJp0B0LDnPgi-3" value="&lt;span style=&quot;font-size: 14px;&quot;&gt;Owner&lt;/span&gt;" style="rounded=0;whiteSpace=wrap;html=1;" vertex="1" parent="1">
          <mxGeometry x="320" y="190" width="130" height="50" as="geometry" />
        </mxCell>
        <mxCell id="awwlPpyYNJp0B0LDnPgi-4" value="&lt;font style=&quot;font-size: 14px;&quot;&gt;Vehicle Owner&lt;/font&gt;" style="rounded=0;whiteSpace=wrap;html=1;" vertex="1" parent="1">
          <mxGeometry x="580" y="180" width="150" height="60" as="geometry" />
        </mxCell>
        <mxCell id="awwlPpyYNJp0B0LDnPgi-5" value="Vehicle Registration" style="rounded=0;whiteSpace=wrap;html=1;" vertex="1" parent="1">
          <mxGeometry x="100" y="340" width="140" height="60" as="geometry" />
        </mxCell>
        <mxCell id="awwlPpyYNJp0B0LDnPgi-6" value="&lt;span style=&quot;font-size: 14px;&quot;&gt;Challan&lt;/span&gt;" style="rounded=0;whiteSpace=wrap;html=1;" vertex="1" parent="1">
          <mxGeometry x="320" y="340" width="120" height="60" as="geometry" />
        </mxCell>
        <mxCell id="awwlPpyYNJp0B0LDnPgi-7" value="&lt;span style=&quot;font-size: 14px;&quot;&gt;Challan Details&lt;/span&gt;" style="rounded=0;whiteSpace=wrap;html=1;" vertex="1" parent="1">
          <mxGeometry x="560" y="330" width="170" height="60" as="geometry" />
        </mxCell>
        <mxCell id="awwlPpyYNJp0B0LDnPgi-8" value="&lt;span style=&quot;font-size: 14px;&quot;&gt;Received Challan&lt;/span&gt;" style="rounded=0;whiteSpace=wrap;html=1;" vertex="1" parent="1">
          <mxGeometry x="90" y="510" width="140" height="60" as="geometry" />
        </mxCell>
        <mxCell id="awwlPpyYNJp0B0LDnPgi-9" value="&lt;span style=&quot;font-size: 14px;&quot;&gt;Token&lt;/span&gt;" style="rounded=0;whiteSpace=wrap;html=1;" vertex="1" parent="1">
          <mxGeometry x="320" y="510" width="120" height="60" as="geometry" />
        </mxCell>
        <mxCell id="awwlPpyYNJp0B0LDnPgi-10" value="&lt;span style=&quot;font-size: 14px;&quot;&gt;Vehicle Type&lt;/span&gt;" style="rounded=0;whiteSpace=wrap;html=1;" vertex="1" parent="1">
          <mxGeometry x="550" y="510" width="170" height="60" as="geometry" />
        </mxCell>
        <mxCell id="awwlPpyYNJp0B0LDnPgi-11" value="&lt;span style=&quot;font-size: 14px;&quot;&gt;Vehicle&amp;nbsp;&lt;/span&gt;" style="rounded=0;whiteSpace=wrap;html=1;" vertex="1" parent="1">
          <mxGeometry x="90" y="710" width="120" height="60" as="geometry" />
        </mxCell>
        <mxCell id="awwlPpyYNJp0B0LDnPgi-12" value="&lt;span style=&quot;font-size: 14px;&quot;&gt;Number Pool&lt;/span&gt;" style="rounded=0;whiteSpace=wrap;html=1;" vertex="1" parent="1">
          <mxGeometry x="345" y="720" width="140" height="60" as="geometry" />
        </mxCell>
        <mxCell id="awwlPpyYNJp0B0LDnPgi-13" value="&lt;span style=&quot;font-size: 14px;&quot;&gt;Maker&lt;/span&gt;" style="rounded=0;whiteSpace=wrap;html=1;" vertex="1" parent="1">
          <mxGeometry x="552.5" y="730" width="150" height="60" as="geometry" />
        </mxCell>
        <mxCell id="awwlPpyYNJp0B0LDnPgi-14" value="&lt;span style=&quot;font-size: 14px;&quot;&gt;Vehicle CC&lt;/span&gt;" style="rounded=0;whiteSpace=wrap;html=1;" vertex="1" parent="1">
          <mxGeometry x="335" y="920" width="170" height="60" as="geometry" />
        </mxCell>
        <mxCell id="awwlPpyYNJp0B0LDnPgi-30" value="Id" style="ellipse;whiteSpace=wrap;html=1;align=center;" vertex="1" parent="1">
          <mxGeometry x="10" y="90" width="70" height="30" as="geometry" />
        </mxCell>
        <mxCell id="awwlPpyYNJp0B0LDnPgi-31" value="vehicle id" style="ellipse;whiteSpace=wrap;html=1;align=center;" vertex="1" parent="1">
          <mxGeometry x="100" y="85" width="70" height="35" as="geometry" />
        </mxCell>
        <mxCell id="awwlPpyYNJp0B0LDnPgi-46" value="" style="shape=waypoint;sketch=0;size=6;pointerEvents=1;points=[];fillColor=none;resizable=0;rotatable=0;perimeter=centerPerimeter;snapToPoint=1;" vertex="1" parent="1">
          <mxGeometry x="270" y="92.5" width="20" height="20" as="geometry" />
        </mxCell>
        <mxCell id="awwlPpyYNJp0B0LDnPgi-50" value="" style="shape=waypoint;sketch=0;size=6;pointerEvents=1;points=[];fillColor=none;resizable=0;rotatable=0;perimeter=centerPerimeter;snapToPoint=1;" vertex="1" parent="1">
          <mxGeometry x="280" y="92.5" width="20" height="20" as="geometry" />
        </mxCell>
        <mxCell id="awwlPpyYNJp0B0LDnPgi-51" value="Id" style="ellipse;whiteSpace=wrap;html=1;align=center;" vertex="1" parent="1">
          <mxGeometry x="255" y="127.5" width="70" height="30" as="geometry" />
        </mxCell>
        <mxCell id="awwlPpyYNJp0B0LDnPgi-52" value="name" style="ellipse;whiteSpace=wrap;html=1;align=center;" vertex="1" parent="1">
          <mxGeometry x="330" y="120" width="70" height="35" as="geometry" />
        </mxCell>
        <mxCell id="awwlPpyYNJp0B0LDnPgi-53" value="cnic" style="ellipse;whiteSpace=wrap;html=1;align=center;" vertex="1" parent="1">
          <mxGeometry x="420" y="120" width="70" height="40" as="geometry" />
        </mxCell>
        <mxCell id="awwlPpyYNJp0B0LDnPgi-54" value="" style="shape=waypoint;sketch=0;size=6;pointerEvents=1;points=[];fillColor=none;resizable=0;rotatable=0;perimeter=centerPerimeter;snapToPoint=1;" vertex="1" parent="1">
          <mxGeometry x="490" y="127.5" width="20" height="20" as="geometry" />
        </mxCell>
        <mxCell id="awwlPpyYNJp0B0LDnPgi-55" value="" style="shape=waypoint;sketch=0;size=6;pointerEvents=1;points=[];fillColor=none;resizable=0;rotatable=0;perimeter=centerPerimeter;snapToPoint=1;" vertex="1" parent="1">
          <mxGeometry x="500" y="127.5" width="20" height="20" as="geometry" />
        </mxCell>
        <mxCell id="awwlPpyYNJp0B0LDnPgi-60" value="Id" style="ellipse;whiteSpace=wrap;html=1;align=center;" vertex="1" parent="1">
          <mxGeometry x="517.5" y="80" width="70" height="30" as="geometry" />
        </mxCell>
        <mxCell id="awwlPpyYNJp0B0LDnPgi-61" value="vehicle id" style="ellipse;whiteSpace=wrap;html=1;align=center;" vertex="1" parent="1">
          <mxGeometry x="592.5" y="72.5" width="70" height="35" as="geometry" />
        </mxCell>
        <mxCell id="awwlPpyYNJp0B0LDnPgi-62" value="owner id" style="ellipse;whiteSpace=wrap;html=1;align=center;" vertex="1" parent="1">
          <mxGeometry x="682.5" y="72.5" width="70" height="40" as="geometry" />
        </mxCell>
        <mxCell id="awwlPpyYNJp0B0LDnPgi-68" value="" style="shape=waypoint;sketch=0;size=6;pointerEvents=1;points=[];fillColor=none;resizable=0;rotatable=0;perimeter=centerPerimeter;snapToPoint=1;" vertex="1" parent="1">
          <mxGeometry x="752.5" y="85" width="20" height="20" as="geometry" />
        </mxCell>
        <mxCell id="awwlPpyYNJp0B0LDnPgi-69" value="" style="shape=waypoint;sketch=0;size=6;pointerEvents=1;points=[];fillColor=none;resizable=0;rotatable=0;perimeter=centerPerimeter;snapToPoint=1;" vertex="1" parent="1">
          <mxGeometry x="760" y="85" width="20" height="20" as="geometry" />
        </mxCell>
        <mxCell id="awwlPpyYNJp0B0LDnPgi-86" value="Id" style="ellipse;whiteSpace=wrap;html=1;align=center;" vertex="1" parent="1">
          <mxGeometry x="10" y="360" width="70" height="30" as="geometry" />
        </mxCell>
        <mxCell id="awwlPpyYNJp0B0LDnPgi-87" value="vehicle id" style="ellipse;whiteSpace=wrap;html=1;align=center;" vertex="1" parent="1">
          <mxGeometry x="10" y="320" width="70" height="35" as="geometry" />
        </mxCell>
        <mxCell id="awwlPpyYNJp0B0LDnPgi-88" value="number pool&amp;nbsp;" style="ellipse;whiteSpace=wrap;html=1;align=center;" vertex="1" parent="1">
          <mxGeometry x="10" y="270" width="70" height="40" as="geometry" />
        </mxCell>
        <mxCell id="awwlPpyYNJp0B0LDnPgi-96" value="" style="shape=waypoint;sketch=0;size=6;pointerEvents=1;points=[];fillColor=none;resizable=0;rotatable=0;perimeter=centerPerimeter;snapToPoint=1;" vertex="1" parent="1">
          <mxGeometry x="80" y="270" width="20" height="20" as="geometry" />
        </mxCell>
        <mxCell id="awwlPpyYNJp0B0LDnPgi-97" value="" style="shape=waypoint;sketch=0;size=6;pointerEvents=1;points=[];fillColor=none;resizable=0;rotatable=0;perimeter=centerPerimeter;snapToPoint=1;" vertex="1" parent="1">
          <mxGeometry x="90" y="270" width="20" height="20" as="geometry" />
        </mxCell>
        <mxCell id="awwlPpyYNJp0B0LDnPgi-98" value="Id" style="ellipse;whiteSpace=wrap;html=1;align=center;" vertex="1" parent="1">
          <mxGeometry x="752.5" y="320" width="70" height="30" as="geometry" />
        </mxCell>
        <mxCell id="awwlPpyYNJp0B0LDnPgi-99" value="challan id" style="ellipse;whiteSpace=wrap;html=1;align=center;" vertex="1" parent="1">
          <mxGeometry x="752.5" y="365" width="70" height="35" as="geometry" />
        </mxCell>
        <mxCell id="awwlPpyYNJp0B0LDnPgi-100" value="naration" style="ellipse;whiteSpace=wrap;html=1;align=center;" vertex="1" parent="1">
          <mxGeometry x="760" y="415" width="70" height="40" as="geometry" />
        </mxCell>
        <mxCell id="awwlPpyYNJp0B0LDnPgi-102" value="Id" style="ellipse;whiteSpace=wrap;html=1;align=center;" vertex="1" parent="1">
          <mxGeometry x="255" y="425" width="70" height="30" as="geometry" />
        </mxCell>
        <mxCell id="awwlPpyYNJp0B0LDnPgi-103" value="challan number" style="ellipse;whiteSpace=wrap;html=1;align=center;" vertex="1" parent="1">
          <mxGeometry x="345" y="437.5" width="70" height="35" as="geometry" />
        </mxCell>
        <mxCell id="awwlPpyYNJp0B0LDnPgi-104" value="amount" style="ellipse;whiteSpace=wrap;html=1;align=center;" vertex="1" parent="1">
          <mxGeometry x="435" y="420" width="70" height="40" as="geometry" />
        </mxCell>
        <mxCell id="awwlPpyYNJp0B0LDnPgi-105" value="" style="shape=waypoint;sketch=0;size=6;pointerEvents=1;points=[];fillColor=none;resizable=0;rotatable=0;perimeter=centerPerimeter;snapToPoint=1;" vertex="1" parent="1">
          <mxGeometry x="510" y="437.5" width="20" height="20" as="geometry" />
        </mxCell>
        <mxCell id="awwlPpyYNJp0B0LDnPgi-110" value="" style="shape=waypoint;sketch=0;size=6;pointerEvents=1;points=[];fillColor=none;resizable=0;rotatable=0;perimeter=centerPerimeter;snapToPoint=1;" vertex="1" parent="1">
          <mxGeometry x="520" y="437.5" width="20" height="20" as="geometry" />
        </mxCell>
        <mxCell id="awwlPpyYNJp0B0LDnPgi-111" style="edgeStyle=orthogonalEdgeStyle;rounded=0;orthogonalLoop=1;jettySize=auto;html=1;exitX=0.5;exitY=1;exitDx=0;exitDy=0;" edge="1" parent="1" source="awwlPpyYNJp0B0LDnPgi-99" target="awwlPpyYNJp0B0LDnPgi-99">
          <mxGeometry relative="1" as="geometry" />
        </mxCell>
        <mxCell id="awwlPpyYNJp0B0LDnPgi-115" value="" style="shape=waypoint;sketch=0;size=6;pointerEvents=1;points=[];fillColor=none;resizable=0;rotatable=0;perimeter=centerPerimeter;snapToPoint=1;" vertex="1" parent="1">
          <mxGeometry x="780" y="455" width="20" height="20" as="geometry" />
        </mxCell>
        <mxCell id="awwlPpyYNJp0B0LDnPgi-116" value="" style="shape=waypoint;sketch=0;size=6;pointerEvents=1;points=[];fillColor=none;resizable=0;rotatable=0;perimeter=centerPerimeter;snapToPoint=1;" vertex="1" parent="1">
          <mxGeometry x="780" y="470" width="20" height="20" as="geometry" />
        </mxCell>
        <mxCell id="awwlPpyYNJp0B0LDnPgi-119" value="Id" style="ellipse;whiteSpace=wrap;html=1;align=center;" vertex="1" parent="1">
          <mxGeometry x="10" y="570" width="70" height="30" as="geometry" />
        </mxCell>
        <mxCell id="awwlPpyYNJp0B0LDnPgi-120" value="challan id" style="ellipse;whiteSpace=wrap;html=1;align=center;" vertex="1" parent="1">
          <mxGeometry x="10" y="530" width="70" height="35" as="geometry" />
        </mxCell>
        <mxCell id="awwlPpyYNJp0B0LDnPgi-121" value="vehical id" style="ellipse;whiteSpace=wrap;html=1;align=center;" vertex="1" parent="1">
          <mxGeometry x="10" y="480" width="70" height="40" as="geometry" />
        </mxCell>
        <mxCell id="awwlPpyYNJp0B0LDnPgi-125" value="" style="shape=waypoint;sketch=0;size=6;pointerEvents=1;points=[];fillColor=none;resizable=0;rotatable=0;perimeter=centerPerimeter;snapToPoint=1;" vertex="1" parent="1">
          <mxGeometry x="60" y="460" width="20" height="20" as="geometry" />
        </mxCell>
        <mxCell id="awwlPpyYNJp0B0LDnPgi-126" value="" style="shape=waypoint;sketch=0;size=6;pointerEvents=1;points=[];fillColor=none;resizable=0;rotatable=0;perimeter=centerPerimeter;snapToPoint=1;" vertex="1" parent="1">
          <mxGeometry x="70" y="460" width="20" height="20" as="geometry" />
        </mxCell>
        <mxCell id="awwlPpyYNJp0B0LDnPgi-127" value="engine no" style="ellipse;whiteSpace=wrap;html=1;align=center;" vertex="1" parent="1">
          <mxGeometry y="830" width="70" height="30" as="geometry" />
        </mxCell>
        <mxCell id="awwlPpyYNJp0B0LDnPgi-128" value="chasis no" style="ellipse;whiteSpace=wrap;html=1;align=center;" vertex="1" parent="1">
          <mxGeometry y="780" width="70" height="35" as="geometry" />
        </mxCell>
        <mxCell id="awwlPpyYNJp0B0LDnPgi-129" value="vehical id" style="ellipse;whiteSpace=wrap;html=1;align=center;" vertex="1" parent="1">
          <mxGeometry y="730" width="70" height="40" as="geometry" />
        </mxCell>
        <mxCell id="awwlPpyYNJp0B0LDnPgi-130" value="alteration details" style="ellipse;whiteSpace=wrap;html=1;align=center;" vertex="1" parent="1">
          <mxGeometry x="180" y="85" width="70" height="35" as="geometry" />
        </mxCell>
        <mxCell id="awwlPpyYNJp0B0LDnPgi-131" value="Id" style="ellipse;whiteSpace=wrap;html=1;align=center;" vertex="1" parent="1">
          <mxGeometry x="255" y="595" width="70" height="30" as="geometry" />
        </mxCell>
        <mxCell id="awwlPpyYNJp0B0LDnPgi-132" value="vehocal id" style="ellipse;whiteSpace=wrap;html=1;align=center;" vertex="1" parent="1">
          <mxGeometry x="345" y="607.5" width="70" height="35" as="geometry" />
        </mxCell>
        <mxCell id="awwlPpyYNJp0B0LDnPgi-133" value="date" style="ellipse;whiteSpace=wrap;html=1;align=center;" vertex="1" parent="1">
          <mxGeometry x="435" y="590" width="70" height="40" as="geometry" />
        </mxCell>
        <mxCell id="awwlPpyYNJp0B0LDnPgi-134" value="" style="shape=waypoint;sketch=0;size=6;pointerEvents=1;points=[];fillColor=none;resizable=0;rotatable=0;perimeter=centerPerimeter;snapToPoint=1;" vertex="1" parent="1">
          <mxGeometry x="510" y="600" width="20" height="20" as="geometry" />
        </mxCell>
        <mxCell id="awwlPpyYNJp0B0LDnPgi-135" value="" style="shape=waypoint;sketch=0;size=6;pointerEvents=1;points=[];fillColor=none;resizable=0;rotatable=0;perimeter=centerPerimeter;snapToPoint=1;" vertex="1" parent="1">
          <mxGeometry x="520" y="600" width="20" height="20" as="geometry" />
        </mxCell>
        <mxCell id="awwlPpyYNJp0B0LDnPgi-136" value="" style="shape=waypoint;sketch=0;size=6;pointerEvents=1;points=[];fillColor=none;resizable=0;rotatable=0;perimeter=centerPerimeter;snapToPoint=1;" vertex="1" parent="1">
          <mxGeometry x="35" y="870" width="20" height="20" as="geometry" />
        </mxCell>
        <mxCell id="awwlPpyYNJp0B0LDnPgi-137" value="" style="shape=waypoint;sketch=0;size=6;pointerEvents=1;points=[];fillColor=none;resizable=0;rotatable=0;perimeter=centerPerimeter;snapToPoint=1;" vertex="1" parent="1">
          <mxGeometry x="35" y="880" width="20" height="20" as="geometry" />
        </mxCell>
        <mxCell id="awwlPpyYNJp0B0LDnPgi-141" value="Id" style="ellipse;whiteSpace=wrap;html=1;align=center;" vertex="1" parent="1">
          <mxGeometry x="580" y="612.5" width="70" height="30" as="geometry" />
        </mxCell>
        <mxCell id="awwlPpyYNJp0B0LDnPgi-142" value="type" style="ellipse;whiteSpace=wrap;html=1;align=center;" vertex="1" parent="1">
          <mxGeometry x="735" y="607.5" width="70" height="35" as="geometry" />
        </mxCell>
        <mxCell id="awwlPpyYNJp0B0LDnPgi-143" value="vehical id" style="ellipse;whiteSpace=wrap;html=1;align=center;" vertex="1" parent="1">
          <mxGeometry x="657.5" y="607.5" width="70" height="40" as="geometry" />
        </mxCell>
        <mxCell id="awwlPpyYNJp0B0LDnPgi-145" value="" style="shape=waypoint;sketch=0;size=6;pointerEvents=1;points=[];fillColor=none;resizable=0;rotatable=0;perimeter=centerPerimeter;snapToPoint=1;" vertex="1" parent="1">
          <mxGeometry x="802.5" y="615" width="20" height="20" as="geometry" />
        </mxCell>
        <mxCell id="awwlPpyYNJp0B0LDnPgi-146" value="" style="shape=waypoint;sketch=0;size=6;pointerEvents=1;points=[];fillColor=none;resizable=0;rotatable=0;perimeter=centerPerimeter;snapToPoint=1;" vertex="1" parent="1">
          <mxGeometry x="810" y="615" width="20" height="20" as="geometry" />
        </mxCell>
        <mxCell id="awwlPpyYNJp0B0LDnPgi-148" value="Id" style="ellipse;whiteSpace=wrap;html=1;align=center;" vertex="1" parent="1">
          <mxGeometry x="720" y="720" width="70" height="30" as="geometry" />
        </mxCell>
        <mxCell id="awwlPpyYNJp0B0LDnPgi-149" value="name" style="ellipse;whiteSpace=wrap;html=1;align=center;" vertex="1" parent="1">
          <mxGeometry x="720" y="765" width="70" height="35" as="geometry" />
        </mxCell>
        <mxCell id="awwlPpyYNJp0B0LDnPgi-150" value="website" style="ellipse;whiteSpace=wrap;html=1;align=center;" vertex="1" parent="1">
          <mxGeometry x="720" y="820" width="70" height="40" as="geometry" />
        </mxCell>
        <mxCell id="awwlPpyYNJp0B0LDnPgi-151" value="" style="shape=waypoint;sketch=0;size=6;pointerEvents=1;points=[];fillColor=none;resizable=0;rotatable=0;perimeter=centerPerimeter;snapToPoint=1;" vertex="1" parent="1">
          <mxGeometry x="800" y="830" width="20" height="20" as="geometry" />
        </mxCell>
        <mxCell id="awwlPpyYNJp0B0LDnPgi-152" value="" style="shape=waypoint;sketch=0;size=6;pointerEvents=1;points=[];fillColor=none;resizable=0;rotatable=0;perimeter=centerPerimeter;snapToPoint=1;" vertex="1" parent="1">
          <mxGeometry x="810" y="830" width="20" height="20" as="geometry" />
        </mxCell>
        <mxCell id="awwlPpyYNJp0B0LDnPgi-153" value="Id" style="ellipse;whiteSpace=wrap;html=1;align=center;" vertex="1" parent="1">
          <mxGeometry x="325" y="1005" width="70" height="30" as="geometry" />
        </mxCell>
        <mxCell id="awwlPpyYNJp0B0LDnPgi-154" value="vehocal id" style="ellipse;whiteSpace=wrap;html=1;align=center;" vertex="1" parent="1">
          <mxGeometry x="415" y="1017.5" width="70" height="35" as="geometry" />
        </mxCell>
        <mxCell id="awwlPpyYNJp0B0LDnPgi-155" value="cc" style="ellipse;whiteSpace=wrap;html=1;align=center;" vertex="1" parent="1">
          <mxGeometry x="505" y="1000" width="70" height="40" as="geometry" />
        </mxCell>
        <mxCell id="awwlPpyYNJp0B0LDnPgi-156" value="" style="shape=waypoint;sketch=0;size=6;pointerEvents=1;points=[];fillColor=none;resizable=0;rotatable=0;perimeter=centerPerimeter;snapToPoint=1;" vertex="1" parent="1">
          <mxGeometry x="590" y="1010" width="20" height="20" as="geometry" />
        </mxCell>
        <mxCell id="awwlPpyYNJp0B0LDnPgi-157" value="" style="shape=waypoint;sketch=0;size=6;pointerEvents=1;points=[];fillColor=none;resizable=0;rotatable=0;perimeter=centerPerimeter;snapToPoint=1;" vertex="1" parent="1">
          <mxGeometry x="605" y="1010" width="20" height="20" as="geometry" />
        </mxCell>
        <mxCell id="awwlPpyYNJp0B0LDnPgi-158" value="Id" style="ellipse;whiteSpace=wrap;html=1;align=center;" vertex="1" parent="1">
          <mxGeometry x="290" y="805" width="70" height="30" as="geometry" />
        </mxCell>
        <mxCell id="awwlPpyYNJp0B0LDnPgi-159" value="reg no" style="ellipse;whiteSpace=wrap;html=1;align=center;" vertex="1" parent="1">
          <mxGeometry x="380" y="817.5" width="70" height="35" as="geometry" />
        </mxCell>
        <mxCell id="awwlPpyYNJp0B0LDnPgi-160" value="status" style="ellipse;whiteSpace=wrap;html=1;align=center;" vertex="1" parent="1">
          <mxGeometry x="470" y="800" width="70" height="40" as="geometry" />
        </mxCell>
      </root>
    </mxGraphModel>
  </diagram>
</mxfile>
